<?xml version="1.0" encoding="UTF-8" standalone="no"?>
<svg xmlns="http://www.w3.org/2000/svg"
    fill="#008cff"
    width="24" height="24"
    viewBox="0 0 18 18"
>
    <g transform="translate(1,1)">
        <path d="M9 4a.5.5 0 0 0-.812-.39L5.825 5.5H3.5A.5.5 0 0 0 3 6v4a.5.5 0 0 0 .5.5h2.325l2.363 1.89A.5.5 0 0 0 9 12zM6.312 6.39 8 5.04v5.92L6.312 9.61A.5.5 0 0 0 6 9.5H4v-3h2a.5.5 0 0 0 .312-.11M12.025 8a4.486 4.486 0 0 1-1.318 3.182L10 10.475A3.489 3.489 0 0 0 11.025 8 3.49 3.49 0 0 0 10 5.525l.707-.707A4.486 4.486 0 0 1 12.025 8"/>    
    </g>
</svg>